<svg width="481" height="109" viewBox="0 0 481 109" fill="none" xmlns="http://www.w3.org/2000/svg">
<path d="M457.461 29.7363C473.001 29.7363 480.771 39.5801 480.771 59.2676V106.982H468.33V60.7715C468.33 55.485 468.057 51.7025 467.51 49.4238C466.963 47.1452 466.143 45.2767 465.049 43.8184C462.725 40.8105 458.919 39.3066 453.633 39.3066C448.301 39.3066 443.789 40.8561 440.098 43.9551C436.406 47.054 434.561 51.1556 434.561 56.2598V106.982H422.119V31.9922H433.535L434.219 40.127C439.186 33.1999 446.934 29.7363 457.461 29.7363Z" fill="black"/>
<path d="M366.475 99.1211C375.179 99.1211 381.104 94.7917 384.248 86.1328C385.934 81.4844 386.777 76.722 386.777 71.8457C386.777 66.9238 386.595 63.0957 386.23 60.3613C385.41 54.1634 383.428 49.1048 380.283 45.1855C377.184 41.2663 372.581 39.3066 366.475 39.3066C357.998 39.3066 352.21 43.7272 349.111 52.5684C347.471 57.3079 346.65 62.2754 346.65 67.4707C346.65 76.6764 348.086 84.2643 350.957 90.2344C353.828 96.1589 359.001 99.1211 366.475 99.1211ZM391.084 40.6738C396.507 47.9655 399.219 57.4902 399.219 69.248C399.219 81.0059 396.279 90.5306 390.4 97.8223C384.521 105.068 376.546 108.691 366.475 108.691C361.097 108.691 356.312 107.666 352.119 105.615C347.926 103.564 344.531 100.739 341.934 97.1387C336.693 89.8926 334.072 80.459 334.072 68.8379C334.072 57.2168 336.966 47.806 342.754 40.6055C348.542 33.3594 356.676 29.7363 367.158 29.7363C377.686 29.7363 385.661 33.3822 391.084 40.6738Z" fill="black"/>
<path d="M357.057 64.8107V73.3272C357.057 75.3918 358.204 77.227 360.498 78.8328C362.849 80.3812 365.172 81.1554 367.466 81.1554C369.76 81.1554 372.054 80.3812 374.348 78.8328C376.699 77.227 377.875 75.3918 377.875 73.3272V64.8107C377.875 62.7461 376.699 60.9396 374.348 59.3911C372.054 57.7853 369.76 56.9824 367.466 56.9824C365.172 56.9824 362.849 57.7853 360.498 59.3911C358.204 60.9396 357.057 62.7461 357.057 64.8107Z" fill="#F35252"/>
<path d="M309.053 102.061C304.268 106.481 297.454 108.691 288.613 108.691C282.962 108.691 277.812 107.62 273.164 105.479C268.516 103.291 264.71 100.374 261.748 96.7285C255.505 89.0723 252.383 79.8438 252.383 69.043C252.383 62.0703 253.796 55.6217 256.621 49.6973C259.492 43.7728 263.708 38.9648 269.268 35.2734C274.827 31.582 281.686 29.7363 289.844 29.7363C298.001 29.7363 304.336 31.901 308.848 36.2305L305.703 44.5703C300.462 41.0612 294.538 39.3066 287.93 39.3066C281.322 39.3066 275.83 42.1322 271.455 47.7832C267.126 53.4342 264.961 60.6348 264.961 69.3848C264.961 78.0892 267.126 85.2214 271.455 90.7812C275.83 96.3411 281.39 99.1211 288.135 99.1211C294.925 99.1211 300.895 97.2982 306.045 93.6523L309.053 102.061Z" fill="black"/>
<path d="M214.512 90.2344V71.0938L204.326 72.5293C197.217 73.5319 192.295 74.5345 189.561 75.5371C183.454 77.8613 180.4 81.7578 180.4 87.2266C180.4 91.0091 181.494 94.0169 183.682 96.25C185.869 98.4831 188.877 99.5996 192.705 99.5996C201.136 99.5996 208.405 96.4779 214.512 90.2344ZM214.512 55.3027C214.512 44.5931 209.977 39.2383 200.908 39.2383C196.624 39.2383 191.885 39.7396 186.689 40.7422C181.54 41.7448 177.917 42.7018 175.82 43.6133L172.881 34.4531C182.314 31.3086 191.178 29.7363 199.473 29.7363C207.767 29.7363 214.421 31.6276 219.434 35.4102C224.447 39.1927 226.953 45.026 226.953 52.9102V106.982H216.631L214.99 98.3008C212.074 101.263 208.314 103.747 203.711 105.752C199.154 107.712 194.688 108.691 190.312 108.691C183.978 108.691 178.714 106.8 174.521 103.018C170.329 99.1895 168.232 93.8118 168.232 86.8848C168.232 79.9121 170.967 74.8079 176.436 71.5723C180.127 69.2936 184.046 67.7441 188.193 66.9238C192.386 66.0579 197.832 65.2148 204.531 64.3945L214.512 63.2324V55.3027Z" fill="black"/>
<path d="M100.352 103.496C95.1107 99.987 91.2142 95.293 88.6621 89.4141C86.1556 83.4896 84.9023 76.8132 84.9023 69.3848C84.9023 61.9564 86.0645 55.3027 88.3887 49.4238C90.7585 43.4993 94.2676 38.737 98.916 35.1367C103.61 31.4909 108.76 29.668 114.365 29.668C124.938 29.668 132.686 33.291 137.607 40.5371C142.529 47.7832 144.99 56.6927 144.99 67.2656V71.4355H97.4805C97.7539 79.1374 99.668 85.6771 103.223 91.0547C106.823 96.4323 112.201 99.1211 119.355 99.1211C124.141 98.6654 130.817 96.0677 139.385 91.3281L143.486 99.8047C137.562 105.729 129.473 108.691 119.219 108.691C111.882 108.691 105.592 106.96 100.352 103.496ZM133.096 62.3438C132.184 46.9857 126.807 39.3066 116.963 39.3066C105.843 39.3066 99.4857 46.9857 97.8906 62.3438H133.096Z" fill="black"/>
<path d="M12.9199 78.4082C13.7402 84.7884 15.6543 89.8242 18.6621 93.5156C21.7155 97.207 26.3639 99.0527 32.6074 99.0527C41.0384 99.0527 46.735 94.6777 49.6973 85.9277C51.2012 81.3249 51.9531 76.5397 51.9531 71.5723C51.9531 66.5592 51.7936 62.7083 51.4746 60.0195C50.791 53.6393 48.9909 48.6035 46.0742 44.9121C43.2031 41.1751 38.7142 39.3066 32.6074 39.3066C22.3991 39.3066 16.1556 44.2285 13.877 54.0723C12.9199 58.1738 12.4414 62.5716 12.4414 67.2656C12.4414 71.9141 12.6009 75.6283 12.9199 78.4082ZM12.4414 42.3145C17.5 33.929 25.0651 29.7363 35.1367 29.7363C45.2539 29.7363 52.6595 33.3822 57.3535 40.6738C62.0931 47.9655 64.4629 57.1257 64.4629 68.1543C64.4629 82.6009 61.0449 93.4701 54.209 100.762C49.2871 106.048 42.5879 108.691 34.1113 108.691C28.5059 108.691 24.222 107.666 21.2598 105.615C18.3431 103.519 15.4036 100.557 12.4414 96.7285L12.3047 106.982H0V1.36719L12.4414 0V42.3145Z" fill="black"/>
</svg>
